#!OML:ASF I:\Actors\actors\Patient Classification 2\Patient 1\Session 1\actor1.ASF
:FULLY-SPECIFIED
:DEGREES
498
root -0.43775 18.6433 5.74695 0.317423 -6.98401 0.0404283
lowerback 2.3667 0.866237 -3.68715
upperback -0.899476 1.05662 1.00331
thorax -2.33925 0.589958 3.05483
lowerneck -13.8613 -1.039 -1.74461
upperneck 17.4861 -1.33144 1.438
head 7.69795 -0.614518 0.619829
rclavicle -1.48312e-016 1.09332e-014
rhumerus -62.8961 -9.20305 -76.8122
rradius 46.045
rwrist 5.23052
rhand -5.9835 -41.0583
rfingers 7.12502
rthumb 19.8482 -70.0648
lclavicle -1.48312e-016 1.09332e-014
lhumerus -43.0577 -6.24212 94.6344
lradius 43.0409
lwrist 3.4929
lhand -7.54773 -22.9832
lfingers 7.12502
lthumb 18.344 6.17183
rfemur 0 0 0
rtibia 0
rfoot 0 0
rtoes 0
lfemur -0.706305 -6.40427 -16.1684
ltibia 20.119
lfoot -25.8755 17.2597
ltoes -53.1994
499
root -0.435921 18.6421 5.74613 0.277035 -6.9669 0.0342635
lowerback 2.28435 0.844718 -3.62257
upperback -0.857483 1.03384 1.01903
thorax -2.24681 0.575287 3.03715
lowerneck -13.7022 -0.934076 -1.7682
upperneck 17.3751 -1.22069 1.62769
head 7.63249 -0.545795 0.698307
rclavicle -2.19129e-015 6.36111e-015
rhumerus -62.1602 -9.06396 -77.1561
rradius 46.8179
rwrist 4.57647
rhand -6.20115 -41.0932
rfingers 7.12502
rthumb 19.639 -70.1212
lclavicle -2.19129e-015 6.36111e-015
lhumerus -43.1873 -6.49284 94.8219
lradius 42.792
lwrist 3.32048
lhand -7.5584 -22.9798
lfingers 7.12502
lthumb 18.3337 6.1762
rfemur 0 0 0
rtibia 0
rfoot 0 0
rtoes 0
lfemur -0.635555 -6.36908 -16.1656
ltibia 20.0714
lfoot -25.8439 17.2123
ltoes -53.1916
500
root -0.435315 18.6414 5.74093 0.196042 -6.99013 0.0759024
lowerback 2.31996 0.858301 -3.64129
upperback -0.82545 1.05056 1.02461
thorax -2.23565 0.583212 3.05247
lowerneck -13.9764 -1.01021 -1.59842
upperneck 17.6934 -1.31006 1.36156
head 7.78498 -0.601422 0.572486
rclavicle 2.09205e-014 9.74045e-015
rhumerus -61.4267 -9.02632 -77.3984
rradius 47.5933
rwrist 3.90378
rhand -6.39271 -40.9425
rfingers 7.12502
rthumb 19.4548 -69.9892
lclavicle 2.09205e-014 9.74045e-015
lhumerus -43.3272 -6.69453 94.9356
lradius 42.5803
lwrist 2.98738
lhand -7.04578 -22.0653
lfingers 7.12502
lthumb 18.8268 7.04361
rfemur 0 0 0
rtibia 0
rfoot 0 0
rtoes 0
lfemur -0.547727 -6.28798 -16.2108
ltibia 20.0459
lfoot -25.7972 17.19
ltoes -53.2472
501
root -0.43654 18.6408 5.73597 0.118892 -7.05508 0.149758
lowerback 2.34718 0.896475 -3.72454
upperback -0.805033 1.09818 1.02974
thorax -2.23561 0.607874 3.10226
lowerneck -14.4054 -1.19606 -1.47785
upperneck 18.2242 -1.52459 1.02439
head 8.03766 -0.72664 0.415497
rclavicle -1.10877e-014 -5.46658e-015
rhumerus -60.7187 -9.03198 -77.5676
rradius 48.362
rwrist 3.13123
rhand -6.60089 -40.6736
rfingers 7.12502
rthumb 19.2546 -69.7404
lclavicle -1.10877e-014 -5.46658e-015
lhumerus -43.4327 -6.78437 94.9772
lradius 42.3048
lwrist 2.50081
lhand -6.45035 -20.6627
lfingers 7.12502
lthumb 19.3994 8.3896
rfemur 0 0 0
rtibia 0
rfoot 0 0
rtoes 0
lfemur -0.45083 -6.27243 -16.3032
ltibia 20.0028
lfoot -25.8202 17.2538
ltoes -53.2612
502
root -0.437727 18.6405 5.73116 0.0579913 -7.11024 0.251903
lowerback 2.33564 0.934438 -3.82074
upperback -0.783518 1.1466 1.03555
thorax -2.21313 0.632633 3.16057
lowerneck -14.3372 -1.2296 -1.63269
upperneck 18.2498 -1.56213 1.14924
head 8.03685 -0.742983 0.478735
rclavicle -7.24477e-016 5.06901e-015
rhumerus -60.055 -9.06477 -77.6778
rradius 49.1897
rwrist 2.25207
rhand -6.79776 -40.4448
rfingers 7.12502
rthumb 19.0653 -69.5304
lclavicle -7.24477e-016 5.06901e-015
lhumerus -43.4847 -6.79124 95.0026
lradius 41.975
lwrist 2.13373
lhand -6.3253 -20.1103
lfingers 7.12502
lthumb 19.5196 8.92984
rfemur 0 0 0
rtibia 0
rfoot 0 0
rtoes 0
lfemur -0.381997 -6.24856 -16.4214
ltibia 19.961
lfoot -25.8216 17.3026
ltoes -53.2677
503
root -0.437576 18.6412 5.72562 0.0306223 -7.13565 0.308826
lowerback 2.31242 0.970655 -3.83126
upperback -0.756708 1.19595 1.04186
thorax -2.17695 0.656288 3.17136
lowerneck -13.5965 -1.00803 -2.02215
upperneck 17.4915 -1.30921 1.82634
head 7.65674 -0.586287 0.796823
rclavicle -1.6166e-014 9.64106e-015
rhumerus -59.4585 -9.11039 -77.7948
rradius 50.1769
rwrist 1.31208
rhand -6.99516 -40.4269
rfingers 7.12502
rthumb 18.8755 -69.531
lclavicle -1.6166e-014 9.64106e-015
lhumerus -43.4844 -6.72524 94.955
lradius 41.6318
lwrist 1.79041
lhand -6.42714 -20.3932
lfingers 7.12502
lthumb 19.4217 8.65684
rfemur 0 0 0
rtibia 0
rfoot 0 0
rtoes 0
lfemur -0.350718 -6.2188 -16.485
ltibia 19.9189
lfoot -25.7735 17.3379
ltoes -53.3052
504
root -0.437818 18.6426 5.72031 0.0353911 -7.17035 0.3169
lowerback 2.27487 1.0121 -3.81098
upperback -0.736092 1.2538 1.05311
thorax -2.13924 0.68389 3.16975
lowerneck -14.0572 -1.19118 -1.74183
upperneck 17.9897 -1.51089 1.27218
head 7.90136 -0.715033 0.544635
rclavicle 3.13956e-014 2.5842e-015
rhumerus -58.9438 -9.05366 -78.017
rradius 51.3148
rwrist 0.264131
rhand -7.30605 -40.742
rfingers 7.12502
rthumb 18.5765 -69.875
lclavicle 3.13956e-014 2.5842e-015
lhumerus -43.4159 -6.53148 94.7921
lradius 41.1947
lwrist 1.33858
lhand -6.48751 -20.8188
lfingers 7.12502
lthumb 19.3637 8.23706
rfemur 0 0 0
rtibia 0
rfoot 0 0
rtoes 0
lfemur -0.34165 -6.22922 -16.4984
ltibia 19.8727
lfoot -25.7339 17.4218
ltoes -53.337
505
root -0.439923 18.6434 5.71602 0.0339781 -7.20004 0.341599
lowerback 2.22928 1.04803 -3.8599
upperback -0.716689 1.3026 1.07082
thorax -2.09933 0.70791 3.21439
lowerneck -13.5754 -1.02548 -1.83695
upperneck 17.4948 -1.32123 1.55884
head 7.65132 -0.605375 0.676987
rclavicle 1.24403e-014 3.27995e-015
rhumerus -58.4723 -8.88319 -78.2754
rradius 52.4604
rwrist -0.925492
rhand -7.63528 -41.0191
rfingers 7.12502
rthumb 18.2597 -70.182
lclavicle 1.24403e-014 3.27995e-015
lhumerus -43.373 -6.28619 94.5829
lradius 40.8159
lwrist 0.974828
lhand -6.42902 -21.1563
lfingers 7.12502
lthumb 19.4199 7.89393
rfemur 0 0 0
rtibia 0
rfoot 0 0
rtoes 0
lfemur -0.325565 -6.30741 -16.5359
ltibia 19.832
lfoot -25.7169 17.5481
ltoes -53.3688
506
root -0.442469 18.6431 5.71374 0.0106216 -7.23989 0.428287
lowerback 2.18946 1.08699 -3.97013
upperback -0.700367 1.3531 1.07261
thorax -2.06724 0.733638 3.27696
lowerneck -14.26 -1.29095 -1.49108
upperneck 18.2289 -1.61696 0.843535
head 8.01311 -0.789872 0.348205
rclavicle -6.32617e-015 -6.65929e-015
rhumerus -57.9938 -8.83442 -78.4361
rradius 53.5433
rwrist -1.95088
rhand -7.90055 -41.1657
rfingers 7.12502
rthumb 18.0045 -70.3523
lclavicle -6.32617e-015 -6.65929e-015
lhumerus -43.3804 -6.03955 94.3465
lradius 40.5359
lwrist 0.676264
lhand -6.32834 -21.3648
lfingers 7.12502
lthumb 19.5167 7.67563
rfemur 0 0 0
rtibia 0
rfoot 0 0
rtoes 0
lfemur -0.286706 -6.38773 -16.6484
ltibia 19.8064
lfoot -25.7514 17.6502
ltoes -53.3782
507
root -0.445343 18.6442 5.70994 0.0118953 -7.27719 0.460724
lowerback 2.16726 1.1248 -4.0088
upperback -0.699922 1.40343 1.07818
thorax -2.05984 0.759157 3.30271
lowerneck -14.4784 -1.39642 -1.30978
upperneck 18.48 -1.73636 0.520828
head 8.13284 -0.865641 0.195731
rclavicle -3.11688e-015 1.27222e-014
rhumerus -57.437 -8.76077 -78.6383
rradius 54.4504
rwrist -2.81591
rhand -8.15281 -41.4613
rfingers 7.12502
rthumb 17.7618 -70.6701
lclavicle -3.11688e-015 1.27222e-014
lhumerus -43.3392 -5.74022 94.0539
lradius 40.2146
lwrist 0.344974
lhand -6.31776 -21.4868
lfingers 7.12502
lthumb 19.5269 7.55262
rfemur 0 0 0
rtibia 0
rfoot 0 0
rtoes 0
lfemur -0.282385 -6.38757 -16.6798
ltibia 19.7888
lfoot -25.771 17.6729
ltoes -53.3722
